<svg width="17" height="17" viewBox="0 0 17 17" fill="none" xmlns="http://www.w3.org/2000/svg">
<path d="M6.16089 6.43566V5.18539C6.16089 4.8538 6.29261 4.53579 6.52708 4.30132C6.76156 4.06684 7.07957 3.93512 7.41116 3.93512H12.4122C12.7438 3.93512 13.0619 4.06684 13.2963 4.30132C13.5308 4.53579 13.6625 4.8538 13.6625 5.18539V12.687C13.6625 13.0186 13.5308 13.3366 13.2963 13.5711C13.0619 13.8056 12.7438 13.9373 12.4122 13.9373H7.66122C6.97075 13.9373 6.16089 13.3775 6.16089 12.687V11.4368" stroke="black" stroke-width="1.00189" stroke-linecap="round" stroke-linejoin="round"/>
<path d="M9.16162 11.4375L11.6625 8.93657L9.16162 6.43567" stroke="black" stroke-width="1.00189" stroke-linecap="round" stroke-linejoin="round"/>
<path d="M2.65967 8.9361H11.1615" stroke="black" stroke-width="1.00189" stroke-linecap="round" stroke-linejoin="round"/>
</svg>
